<svg width="74" height="123" viewBox="0 0 74 123" fill="none" xmlns="http://www.w3.org/2000/svg">
<path d="M36 66.68L36.36 70.064C35.016 70.304 33.84 70.424 32.832 70.424C30.576 70.424 28.416 68.912 26.352 65.888C24.288 62.912 22.656 59.408 21.456 55.376C20.304 51.344 19.584 47.456 19.296 43.712C16.896 49.952 14.616 54.488 12.456 57.32C10.344 60.104 8.16 61.496 5.904 61.496C4.752 61.496 3.84 61.04 3.168 60.128C2.496 59.168 2.16 57.92 2.16 56.384C2.16 52.832 3.792 48.32 7.056 42.848C10.368 37.376 14.232 32.888 18.648 29.384C18.744 29.096 19.152 27.344 19.872 24.128C20.64 20.912 21.096 19.136 21.24 18.8L25.416 18.44C25.416 19.256 25.2 20.96 24.768 23.552C31.248 18.608 36.576 16.136 40.752 16.136C42.72 16.136 44.28 16.688 45.432 17.792C46.584 18.848 47.16 20.288 47.16 22.112C47.16 26.672 44.856 31.28 40.248 35.936C35.64 40.544 30.72 43.256 25.488 44.072C25.872 51.032 27.072 56.48 29.088 60.416C31.152 64.352 33.456 66.44 36 66.68ZM15.048 42.632C16.344 39.176 17.232 36.416 17.712 34.352C15.072 36.8 12.624 40.064 10.368 44.144C8.16 48.224 7.056 51.248 7.056 53.216C7.056 54.224 7.464 54.728 8.28 54.728C9.72 54.728 11.976 50.696 15.048 42.632ZM19.944 41.624C25.032 41.624 29.592 39.848 33.624 36.296C37.656 32.744 39.672 29.216 39.672 25.712C39.672 24.416 39.336 23.408 38.664 22.688C38.04 21.968 37.032 21.608 35.64 21.608C34.248 21.608 32.232 22.4 29.592 23.984C26.952 25.52 25.056 26.792 23.904 27.8C22.416 33.704 21.096 38.312 19.944 41.624Z" fill="black"/>
<path d="M49.568 50.288L66.632 50.792C67.496 50.792 68.576 50.6 69.872 50.216C71.216 49.784 72.104 49.568 72.536 49.568C72.968 49.568 73.304 49.712 73.544 50C73.832 50.24 73.976 50.552 73.976 50.936C73.976 51.944 73.52 52.808 72.608 53.528C71.696 54.2 70.496 54.68 69.008 54.968C66.224 55.592 63.752 55.904 61.592 55.904C58.664 57.92 55.808 63.728 53.024 73.328C57.776 73.328 60.728 73.4 61.88 73.544L61.736 76.928C61.016 76.976 59.936 77 58.496 77L51.944 76.784C49.256 84.992 45.632 91.52 41.072 96.368C36.512 101.216 31.688 103.64 26.6 103.64C23.48 103.64 20.96 102.704 19.04 100.832C17.12 98.96 16.16 96.488 16.16 93.416C16.16 88.472 19.112 83.984 25.016 79.952C30.92 75.872 38.192 73.712 46.832 73.472C49.76 64.256 53.192 58.4 57.128 55.904L45.536 55.472C40.688 55.472 37.064 56.096 34.664 57.344C32.312 58.592 31.136 60.248 31.136 62.312C31.136 63.416 31.592 64.352 32.504 65.12C33.416 65.84 34.328 66.2 35.24 66.2C36.152 66.2 36.824 66.176 37.256 66.128C37.736 66.032 38.312 65.864 38.984 65.624C39.704 65.336 40.208 65.144 40.496 65.048C41.504 64.712 42.728 64.184 44.168 63.464L45.68 65.336C42.032 68.984 38.048 70.808 33.728 70.808C31.808 70.808 30.224 70.208 28.976 69.008C27.728 67.808 27.104 66.296 27.104 64.472C27.104 60.488 29.144 57.128 33.224 54.392C37.304 51.656 42.752 50.288 49.568 50.288ZM39.488 90.536C42.08 86.504 44.144 81.992 45.68 77C39.728 77.48 34.472 79.376 29.912 82.688C25.4 86 23.144 89.552 23.144 93.344C23.144 94.832 23.648 96.056 24.656 97.016C25.712 97.976 27.08 98.456 28.76 98.456C30.44 98.456 32.264 97.736 34.232 96.296C36.2 94.904 37.952 92.984 39.488 90.536Z" fill="black"/>
</svg>
